<?xml version="1.0" standalone="no"?>
<!DOCTYPE svg PUBLIC "-//W3C//DTD SVG 20010904//EN"
 "http://www.w3.org/TR/2001/REC-SVG-20010904/DTD/svg10.dtd">
<svg version="1.0" xmlns="http://www.w3.org/2000/svg"
 width="512.000000pt" height="512.000000pt" viewBox="0 0 512.000000 512.000000"
 preserveAspectRatio="xMidYMid meet">
<metadata>
Created by potrace 1.11, written by Peter Selinger 2001-2013
</metadata>
<g transform="translate(0.000000,512.000000) scale(0.100000,-0.100000)"
fill="#000000" stroke="none">
<path d="M0 2560 l0 -2560 2560 0 2560 0 0 2560 0 2560 -2560 0 -2560 0 0
-2560z m1730 1040 l0 -140 -181 0 -181 0 4 -22 c8 -39 511 -1638 515 -1635 1
2 119 340 261 751 l259 749 -25 78 -26 79 -161 2 -160 3 -3 138 -3 137 511 0
510 0 0 -140 0 -140 -184 0 -184 0 275 -826 c151 -454 276 -824 278 -822 3 2
484 1539 511 1631 5 16 -8 17 -175 17 l-181 0 0 140 0 140 500 0 500 0 0 -140
0 -140 -147 0 -148 0 -339 -1045 -340 -1045 -166 0 -166 0 -254 730 c-140 401
-257 730 -260 730 -3 0 -124 -329 -270 -730 l-264 -730 -166 0 -166 0 -340
1045 -339 1045 -147 0 -148 0 0 140 0 140 500 0 500 0 0 -140z"/>
</g>
</svg>
